[img]http://lookpic.com/i/688/TwFp0cvB.jpeg[/img]


[b][u]Gamer (2009) DVDRip XviD{ExtraTorrent}-Dubby[/u][/b]
-------------------------------------------------------------------------------
[b]Movie Information[/b]
-------------------------------------------------------------------------------
Movie Title    : Gamer
IMDB Link      : http://www.imdb.com/title/tt1034032/
Genre          : Action | Sci-Fi | Thriller
IMDB Ratings   : 6.0/10   7,359 votes 
Director       : Mark Neveldine; Brian Taylor
Language       : English
Duriation      : 95 min 

-------------------------------------------------------------------------------
[b]Main Cast[/b]
-------------------------------------------------------------------------------
Gerard Butler	... 	Kable

Amber Valletta	... 	Angie

Michael C. Hall	... 	Ken Castle

Kyra Sedgwick	... 	Gina Parker Smith

Logan Lerman	... 	Simon

Alison Lohman	... 	Trace

Terry Crews	... 	Hackman

Ramsey Moore	... 	Gorge
	
Ludacris	... 	Humanz Brother (as Chris 'Ludacris' Bridges)

Aaron Yoo	... 	Humanz Dude

Jonathan Chase	... 	Geek Leader

Dan Callahan	... 	Backup Geek

Brighid Fleming	... 	Delia

Johnny Whitworth... 	Scotch
	
Keith Jardine	... 	Mean Slayer
-------------------------------------------------------------------------------
[b]Plot[/b]
-------------------------------------------------------------------------------
Set in a future-world where humans can control other humans in mass-scale, 
multi-player online gaming environments...

-------------------------------------------------------------------------------
[b]General Release Information[/b]
-------------------------------------------------------------------------------
Release Title                    : Gamer (2009) DVDRip XviD{ExtraTorrent}-Dubby
Source                           : Gamer.PAL.DVDR-SCREAM
Format                           : AVI
Format/Info                      : Audio Video Interleave
File size                        : 756 MiB
Duration                         : 1h 30mn
Overall bit rate                 : 1 162 Kbps
Writing application              : VirtualDubMod 1.5.10.2 (build 2540/release)
Writing library                  : VirtualDubMod build 2540/release

-------------------------------------------------------------------------------
[b]Video Information[/b]
-------------------------------------------------------------------------------
Format                           : MPEG-4 Visual
Format profile                   : AdvancedSimple@L5
Format settings, BVOP            : Yes
Format settings, QPel            : No
Format settings, GMC             : No warppoints
Format settings, Matrix          : Default (H.263)
Muxing mode                      : Packed bitstream
Codec ID                         : XVID
Codec ID/Hint                    : XviD
Duration                         : 1h 30mn
Bit rate                         : 1 025 Kbps
Width                            : 640 pixels
Height                           : 336 pixels
Display aspect ratio             : 1.905
Frame rate                       : 25.000 fps
Resolution                       : 24 bits
Colorimetry                      : 4:2:0
Scan type                        : Progressive
Bits/(Pixel*Frame)               : 0.191
Stream size                      : 666 MiB (88%)
Writing library                  : XviD 1.2.1 (UTC 2008-12-04)


-------------------------------------------------------------------------------
[b]Audio Information[/b]
-------------------------------------------------------------------------------
ID                               : 1
Format                           : MPEG Audio
Format version                   : Version 1
Format profile                   : Layer 3
Codec ID                         : 55
Codec ID/Hint                    : MP3
Duration                         : 1h 30mn
Bit rate mode                    : Constant
Bit rate                         : 128 Kbps
Channel(s)                       : 2 channels
Sampling rate                    : 48.0 KHz
Resolution                       : 16 bits
Stream size                      : 83.2 MiB (11%)
Alignment                        : Aligned on interleaves
Interleave, duration             : 40 ms (1.00 video frame)
Interleave, preload duration     : 504 ms


-------------------------------------------------------------------------------
[b]Notes[/b]
-------------------------------------------------------------------------------
I am looking For PAL and NTSC DVDRs, Pre released R5s, dvd/screeners, direct/
line audio, and syncers. If you can offer me anything, pm me and we'll chat
on msn! i do not take requests very often....
this is burn tested using convert x to dvd enjoy.

-------------------------------------------------------------------------------
[b]Screenshots[/b]
-------------------------------------------------------------------------------
[img]http://lookpic.com/i/195/yGa001zV.png[/img]
[img]http://lookpic.com/i/3/EY4Ghof5.png[/img]
[img]http://lookpic.com/i/903/0YVYGmKM.png[/img]
[img]http://lookpic.com/i/828/lamxyTyo.png[/img]
[img]http://lookpic.com/i/484/n7gchgoF.png[/img]


Quick Shouts: Wrath, BADASS, SaM, xxxObscenexxx and every other loyal member
of et thanks to you for seeding and sharing! Blazinseedboxes.com is a good place
to get a seedbox if you are interested!